<svg width="15" height="16" viewBox="0 0 15 16" fill="none" xmlns="http://www.w3.org/2000/svg">
<g clip-path="url(#clip0)">
<path d="M14.8167 14.8628L10.5511 10.3129C11.3774 9.22423 11.8749 7.8409 11.8749 6.33426C11.8749 2.84229 9.21114 0.000976562 5.93742 0.000976562C2.6637 0.000976562 0 2.84226 0 6.33423C0 9.82619 2.66373 12.6675 5.93745 12.6675C7.34993 12.6675 8.6468 12.1369 9.66741 11.2555L13.933 15.8055C14.0549 15.9355 14.2149 16.0008 14.3749 16.0008C14.5349 16.0008 14.6949 15.9355 14.8168 15.8055C15.0611 15.5448 15.0611 15.1235 14.8167 14.8628ZM5.93745 11.3342C3.35247 11.3342 1.25 9.09154 1.25 6.33423C1.25 3.57691 3.35247 1.33428 5.93745 1.33428C8.52244 1.33428 10.6249 3.57691 10.6249 6.33423C10.6249 9.09154 8.52241 11.3342 5.93745 11.3342Z" fill="#A79C9C"/>
</g>
<defs>
<clipPath id="clip0">
<rect width="15" height="16" fill="white"/>
</clipPath>
</defs>
</svg>
